<?xml version="1.0" standalone="no"?>
<!DOCTYPE svg PUBLIC "-//W3C//DTD SVG 20010904//EN"
 "http://www.w3.org/TR/2001/REC-SVG-20010904/DTD/svg10.dtd">
<svg version="1.0" xmlns="http://www.w3.org/2000/svg"
 width="159.000000pt" height="159.000000pt" viewBox="0 0 159.000000 159.000000"
 preserveAspectRatio="xMidYMid meet">
<metadata>
Created by potrace 1.14, written by Peter Selinger 2001-2017
</metadata>
<g transform="translate(0.000000,159.000000) scale(0.100000,-0.100000)"
fill="#000000" stroke="none">
<path d="M510 1503 c10 -32 35 -110 55 -173 20 -63 46 -145 57 -182 20 -66 21
-66 47 -55 14 6 30 14 35 18 4 4 -24 74 -64 156 -40 81 -88 181 -107 221 -19
39 -36 72 -37 72 -2 0 4 -26 14 -57z"/>
<path d="M997 1336 c-59 -117 -107 -216 -107 -220 0 -3 15 -12 33 -19 l32 -14
77 230 c43 127 76 232 75 233 -1 2 -51 -93 -110 -210z"/>
<path d="M254 1006 l229 -116 13 25 c7 14 15 29 19 34 4 7 -351 133 -475 168
-8 2 88 -48 214 -111z"/>
<path d="M1445 1075 c-55 -18 -158 -52 -230 -75 -71 -23 -131 -43 -133 -44 -3
-3 28 -66 32 -66 2 0 104 49 227 109 123 61 220 110 214 110 -5 0 -55 -16
-110 -34z"/>
<path d="M707 1076 c-165 -61 -245 -239 -177 -392 29 -66 73 -111 144 -145
108 -52 245 -28 329 57 61 61 82 115 82 209 0 69 -4 87 -29 132 -54 98 -128
143 -241 150 -45 2 -84 -2 -108 -11z"/>
<path d="M290 624 c-96 -47 -194 -94 -217 -105 -24 -11 -43 -21 -43 -23 0 -2
75 20 167 50 93 30 200 64 238 75 39 12 71 23 73 24 7 5 -22 65 -31 65 -7 -1
-91 -39 -187 -86z"/>
<path d="M1092 678 c-6 -17 -11 -33 -9 -34 2 -2 433 -145 457 -151 8 -2 -82
46 -200 106 -118 60 -220 110 -225 110 -6 1 -16 -13 -23 -31z"/>
<path d="M635 508 c-23 -61 -153 -458 -150 -458 3 0 54 100 115 222 96 191
109 224 93 226 -10 2 -22 8 -27 13 -14 13 -26 11 -31 -3z"/>
<path d="M912 504 l-32 -14 33 -68 c19 -37 67 -136 107 -219 41 -84 75 -151
76 -150 2 2 -17 66 -42 142 -24 77 -56 178 -70 225 -15 47 -29 88 -33 91 -3 4
-21 0 -39 -7z"/>
</g>
</svg>
